<svg viewBox="0 0 200 200" xmlns="http://www.w3.org/2000/svg">
  <!-- Background -->
  <rect width="200" height="200" fill="transparent"/>
  
  <!-- Nail file rotating out from behind handle base -->
  <g transform="rotate(80 100 170)">
    <!-- Nail file body (behind handle base) -->
    <rect x="61" y="167" width="42" height="6" rx="3" fill="#555555"/>
  </g>

  <!-- Second file (twice as long, half rotation) -->
  <g transform="rotate(70 100 170)">
    <!-- Longer file body -->
    <rect x="45" y="167" width="56" height="6" fill="#777777"/>
    <!-- Clip point like a knife at far end (overlapping rounded end) -->
    <polygon points="45,167 37,169 39,170 37,171 45,173" fill="#777777"/>
  </g>

  <!-- Canoe paddle tool on right side -->
  <g transform="rotate(-70 100 170)">
    <!-- Paddle handle (25% shorter) -->
    <rect x="103" y="167" width="42" height="6" fill="#888888"/>
    <!-- Paddle blade (tapered rectangle parallel to shaft, overlapping rounded end) -->
    <polygon points="145,164 161,162 161,178 145,176" fill="#888888"/>
  </g>

  <!-- Hammer handle (simple, clean lines) -->
  <rect x="95" y="100" width="10" height="70" rx="2" fill="#333333"/>
  
  <!-- Hammer head (simplified, iconic shape) -->
  <rect x="75" y="85" width="50" height="20" rx="2" fill="#333333"/>
  

  

  
  <!-- Hinge/pivot point at handle end -->
  <circle cx="100" cy="170" r="4" fill="#333333"/>
  <circle cx="100" cy="170" r="2" fill="#666666"/>
  
  <!-- Handle end cap -->
  <rect x="95" y="170" width="10" height="5" rx="2" fill="#333333"/>
</svg>